<svg width="170" height="170" viewBox="0 0 170 170" fill="none" xmlns="http://www.w3.org/2000/svg">
<rect x="79.752" width="38" height="120" rx="19" transform="rotate(30 79.752 0)" fill="url(#paint0_linear_277_69)"/>
<path fill-rule="evenodd" clip-rule="evenodd" d="M134.015 63.5C124.927 58.2533 113.306 61.3669 108.06 70.4545L67.0601 141.469C61.814 150.556 64.9272 162.176 74.0151 167.423C77.1284 169.22 80.5366 170.036 83.8862 169.968C84.2554 169.989 84.6245 170 84.9995 170H151C161.494 170 170 161.493 170 151C170 140.507 161.494 132 151 132H116.404L140.968 89.4545C146.216 80.3669 143.103 68.7467 134.015 63.5Z" fill="url(#paint1_linear_277_69)"/>
<path d="M108.054 70.4533C113.301 61.3658 124.921 58.2521 134.008 63.4988C143.096 68.7455 146.21 80.3658 140.963 89.4533L116.399 131.999C116.399 131.999 102.812 131.999 84.5726 131.999C79.2013 131.999 75.8318 126.201 78.5124 121.546C84.6913 110.817 90.2873 101.226 90.2873 101.226L108.054 70.4533Z" fill="#0F43C1"/>
<rect x="38" y="132" width="38" height="38" rx="19" transform="rotate(90 38 132)" fill="url(#paint2_linear_277_69)"/>
<defs>
<linearGradient id="paint0_linear_277_69" x1="98.752" y1="0" x2="98.752" y2="120" gradientUnits="userSpaceOnUse">
<stop stop-color="#2898FF"/>
<stop offset="1" stop-color="#316BF6"/>
</linearGradient>
<linearGradient id="paint1_linear_277_69" x1="75" y1="135" x2="136.5" y2="173" gradientUnits="userSpaceOnUse">
<stop stop-color="#369FFF"/>
<stop offset="1" stop-color="#1F52F2"/>
</linearGradient>
<linearGradient id="paint2_linear_277_69" x1="68" y1="136" x2="46.5" y2="161.5" gradientUnits="userSpaceOnUse">
<stop stop-color="#E55D63"/>
<stop offset="1" stop-color="#FF8761"/>
</linearGradient>
</defs>
</svg>
